<?xml version="1.0" encoding="utf-8"?>
<!-- Svg Vector Icons : http://www.onlinewebfonts.com/icon -->
<!DOCTYPE svg PUBLIC "-//W3C//DTD SVG 1.1//EN" "http://www.w3.org/Graphics/SVG/1.1/DTD/svg11.dtd">
<svg version="1.1" xmlns="http://www.w3.org/2000/svg" xmlns:xlink="http://www.w3.org/1999/xlink" x="0px" y="0px" viewBox="0 0 1000 1000" enable-background="new 0 0 1000 1000" xml:space="preserve">
<metadata> Svg Vector Icons : http://www.onlinewebfonts.com/icon </metadata>
<g><g><g><g><path d="M343.5,580.2c-1.1-0.7-18.6-16.5-23-22.1c-4.3-5.7-12.5-7.2-16.8-9.4c-4.3-2.2-32.9-11.7-39.8-6.8c-6.8,4.9-16.1,7.9-19.7,0c-3.6-7.9-5.4-9-10.4-10.1c-5-1.1-2.5-7.1-2.9-12.4c-0.4-5.3-3.3-10.9-6.8-7.2c-3.6,3.8-15.8,13.6-17.6,8.6c-1.8-4.9-10.4-25.1,2.5-28.9c12.9-3.7,23.7-1.5,26.9,1.9c3.2,3.4,5.7,12.8,9.7,11.6c4-1.2,1.8-8.3,3.2-14.3c1.4-6,10.8-13.9,15-22.1c4.3-8.3,5-13.2,10.4-15.5c5.4-2.2,8.3-5.2,13.3-9c5.1-3.8,12.9-7.1,15.8-9c2.9-1.9,15.8-8.3,20-7.2c4.3,1.2,7.2-0.4,3.6-6.7c-3.6-6.4-8.2-25.6-15-34.2c-6.8-8.6-7.6-10.9-10.8-19.1c-3.2-8.3-6.8-15.5-9.3-9.8c-2.5,5.7-7.9,13.2-10.8,6c-2.8-7.2-2.5-6.8-6.1-10.2c-3.6-3.4-6.5-4.1-11.5-5.7c-5-1.5-10,0.4-9.7,5.3c0.3,4.9-4.7,13.6-1.4,20c3.2,6.4,6.1,13.2,1.8,15.4c-4.3,2.2,0,15.8-4.3,15.4c-4.3-0.3-6.4,0.4-6.4-4.5c0-4.8,2.1-12.4-5.8-12.4c-7.9,0-12.6-4.1-18.3-8.3c-5.8-4.1-10.4-1.9-9-11.3c1.4-9.4-0.7-12.8,5.7-18.1c6.5-5.2,7.9-8.3,12.6-6c4.7,2.3,7.9,2.3,10.8-0.4c2.8-2.6,8.2-1.5,8.2-4.9c0-3.4-6.1-3.4-5.4-9c0.7-5.7,3.6-2.7,4.6-12.1c1.1-9.4-6.8-23.7-14.7-21.8c-7.9,1.8-20.1,12.8-22.6,7.9c-2.5-4.9-7.6-2.6-17.3,0.8c-9.7,3.4-49.9-3.4-52.7-6.8c0,0-6.9-4.8-10.4-2.2c-3.6,2.6-17.9,1.5-22.2,0.8c-4.3-0.8-8.3,4.9-13.6,3c-5.4-1.9-24.4-5.7-28.7-8.7c-4.4-3-10.8-3-13.6-4.5c-2.9-1.5-13.3-2.2-15.4,0.8c-2.2,3-10.1,8.2-14,12c-3.9,3.8-8.5,3.1-4.6,10.9c3.9,7.9-10,12.8-6.5,21.4c3.6,8.6-0.7,31.9,13.6,36.5c14.4,4.5,26.2,7.1,34.4,0.4c8.3-6.8,20.9-6.8,24.8,0.7c3.9,7.5,6.1,18.8,19,25.2c12.9,6.4,24,24.8,23.3,33.1c-0.7,8.3,0.4,35.7,13.6,51.5c13.3,15.8,26.9,44.4,28,37.6c1.1-6.8,1.1-13.6,4-8.7c2.8,4.9,10.4,19.9,22.6,22.6c12.2,2.6,18.3,3.4,23,8c4.6,4.5,8.6,7.1,13.6,9.4c5,2.2,17.2,9,19.7,13.5c2.5,4.5,1.5,10.6-1.1,17.3c-2.5,6.8-5.4,13.5-1.8,19.9c3.6,6.4,11.1,24.8,17.3,28.9c6.1,4.2,12.1,10.9,10.7,20.3c-1.4,9.4-8.2,49.6-7.5,58.7c0.7,9-8.2,38.7-1.1,50.7c7.2,12,19.4,15.8,24.8,14.2c5.4-1.5,1.1-1.9-1.5-7.5c-2.5-5.7-2.2-12.8,0.7-18.1c2.9-5.3,2.9-8.3,1.5-14.3c-1.5-6-0.7-9.4,2.9-13.9c3.6-4.5,18.7-16.5,23.3-21.8c4.6-5.3,34.1-41.4,38-44.4c3.9-3,12.9-10.2,15.8-21.4c2.9-11.3,13.3-33.4,6.1-39.1C371.1,585.2,344.6,581,343.5,580.2z"/></g><g><path d="M415.2,263c2-4,7-14,9.7-19.5H311.2c1.4,6,6.3,28.5,5.4,37.5c-1.1,10.5,2.2,6.8,5,10.9c2.9,4.1,2.2,10.6,0.4,15.4c-1.8,4.9-2.9,15.8,2.9,28.6c5.7,12.8,12.5,28.9,18.2,29.7c5.8,0.7,4.3,9,8.3,6c3.9-3.1,4.6-9.7,7.9-19.6c3.2-9.7,3.2-16.9,11.5-21.8c8.3-4.9,31.2-20.7,36.2-26.3c5.1-5.7,10.8-7.9,9-17.7C414.1,276.6,412.4,268.7,415.2,263z"/></g><g><path d="M974.8,307.4c-4.3-3-30.1-23.7-41.3-21c-11.1,2.6-30.8-6-34.1-7.9c-3.2-1.9-29.7-10-43.7-10.5c-7-0.2-36.2-6.8-48.4-12c-12.2-5.3-22.6-31.2-45.9-27.1c-3,0.5-31.2,4.5-38.4,10.9c-7.1,6.4-10.4,13.9-14.3,15.4c-3.9,1.5-15.4,0.8-15.4,6.4c0,5.7,4,23-0.7,19.5c-4.7-3.4-9.3-11.3-11.5-5.2c-2.1,6-5.8,9.4-7.9,7.1c-2.1-2.3-12.9,0-14.3,3.8c-1.5,3.8-15.4,12.4-21.5,13.5c-6.1,1.1-8.6,4.1-11.9,5.7c-3.2,1.5-27.6,12.8-32.3,8.6c-4.7-4.1-6.1-1.5-9-0.7c0,0-8.6-1.5-14-8.3c-5.4-6.7-6.5-4.5-12.6-10.9c-6.1-6.4-7.5-12.8-13.6-10.1c-6.1,2.6-31.9,29.3-42,41.3c-10,12-28,24.4-19,33.1c9,8.6,13.6,7.5,14.7,12.4c1.1,4.9,2.2,10.2,3.6,12.1c1.4,1.9,10,8.6,14.3-0.4c4.4-9,5-15.4,10-13.9c5,1.5,6.1,4.9,3.5,11.7c-2.5,6.8-4.3,17.3-12.9,16.9c-8.6-0.4-17.9-5.7-20.8-4.5c-2.9,1.1-4.6,3.8-7.9,6.4c-3.2,2.6-13.3,15-20.1,16.9c-6.8,1.9-15,0.3-10.4,6c4.7,5.6,11.5,18.1,5,17.7c-6.4-0.4-17.2-1.5-17.9,4.9c-0.7,6.4-3.6,10.2-2.1,14.7s6.1,13.2,11.8,10.2c5.8-3.1,16.9-6,19.8-12.8c2.9-6.8,6.1-14.2,13.3-13.9c7.2,0.4,24.4,9.7,23.3,13.2c-1.1,3.4-4.6,11.3-0.3,8.7c4.3-2.7,7.9-5.7,10.4-6.8c2.5-1.1,5.8,3.8,6.9,5.7c1,1.9,8.3,5.6,9.7-0.4c1.5-6,2.9-1.5,7.2,0.4c4.3,1.9,17.2,3.3,18.9,4.9c1.9,1.5,5.8,6,0.7,12c-5,6-10.8,8.3-19,3.8c-8.3-4.5-17.3,3.8-26.5-0.8c-9.4-4.5-5.1-10.9-16.2-15.4c-11.1-4.5-36.2,1.1-44.1,3.4c-7.9,2.2-8.2,3-11.4,6.7c-3.2,3.8-24.4,28.2-24.4,42.1c0,13.9,7.9,51.5,33.3,47.8c25.5-3.8,40.9-1.5,38.1,5.9c-2.9,7.6-1.4,9.5,3.2,18.1c4.6,8.7,15.4,66.2,17.2,75.5c1.9,9.4-1.4,21.4,10.4,19.5c11.9-1.9,24.4-4.9,29.4-15.8c5-10.9,5.8-23.3,12.3-29.7c6.5-6.4,14.3-6.4,15-15.4c0.7-9-1.8-30.5,2.5-35.4c4.3-4.8,24.4-27.5,26.5-36.5c2.2-9,5-11.3-3.2-11.3c-8.3,0-22.2-1.1-26.2-8.6c-4-7.4-13.3-21.7-13.3-25.1c0-3.3,5.8-3,8.6,4.1c2.9,7.1,12.9,28.6,24.4,24c11.5-4.5,27.6-9.7,28-16.9c0.4-7.1-5-15.4-10.8-15c-5.8,0.4-11.9-3.8-11.9-7.9c0-4.1,1.1-2.6,7.9,0c6.8,2.6,9,7.1,19.4,7.9c10.4,0.7,22.2,10.9,27.9,15.4c5.7,4.5,15.8,35.4,18.3,38.3c2.5,3.1,5.4,3.1,7.9-3c2.5-6,13.2-25.2,19.4-30.5c6.1-5.3,6.4-12.4,10-7.9c3.6,4.5,19,15.8,20.1,22.6c1.1,6.8-0.7,21.4,2.5,16.9c3.2-4.5,5.8-13.9,8.6-9.7c2.9,4.1,2.9,10.5,9.7,5.7c6.9-4.8,18.7-6.8,12.2-17.3c-6.4-10.5-2.1-16.9,1.8-17.3c3.9-0.4,30.8-5.3,31.6-20c0.7-14.6-9.3-22.5-4.6-30.1c4.6-7.5,11.4-14.3,12.9-9.8c1.4,4.5-3.6,19.2,2.8,16.9c6.5-2.2,14-2.2,14-6.8c0-4.5-1.5-15.8,1.5-18.8c2.9-3,24-22.9,26.5-30.8c2.5-7.9,7.2-14.7,3.2-20.7c-4-6-10.7-4.2-5.4-11.6c5.4-7.5,14.4-14.5,21.2-15.1c21.8-1.9,15.6,25,16,31c0.4,6,0.4,21.1,3.6,13.5c3.2-7.5,7-16.8,13.4-23.1c6.5-6.4,10-10.5,10.4-16.2c0.4-5.6,0.6-7.5,6.8-10.5c6.1-3,33-13.5,35.5-20.7c2.5-7.1-3.2-13.5,3.2-13.1c6.5,0.3,12.6,7.5,15.8,3.7c3.2-3.7,10.4-10.5,10-14.3C989.6,319,979.2,310.4,974.8,307.4z"/></g><g><path d="M859,433.7c-2.1,4.9-3.2,5.7-6.4,15.8c-3.3,10.1-2.2,7.5-5.4,13.9c-3.2,6.4-8.6,7.1-13.9,11.3c-5.4,4.2-6.9,12.4-6.9,12.4c-4.7,6.4,19-9,27.2-13.9c8.3-4.9,6.1-10.5,6.8-18.4c0.7-7.9,3-9,6.4-12.4c3.6-3.4,0.7-10.2-1-15C864,422.4,861.1,428.8,859,433.7z"/></g><g><path d="M785.5,604.4c2.5-1.9,0.7-6,4.6-5.3c4,0.7,7.5,3.1,12.2,0.4c4.6-2.7,8.6-1.5,7.9-6c-0.7-4.5,0-10.5-1-14.2c-1.1-3.8-7.5-4.9-12.2-0.7s-11.1,10.6-11.1,8.3c0-2.2,2.8-8.3,1.4-12c-1.4-3.8,0.7-7.1-6.4-4.1c-7.2,3-11.1,2.2-13.6,6.4c-2.5,4.2-5.4,11.3-9.6,6.8c-4.3-4.5-16.9-13.9-16.9-13.9c-1-1.2-15.3-12.8-10.3-4.9c5,7.9,12.6,21.4,16.2,26.3c3.5,4.9,7.5,10.6,11.8,7.9c4.3-2.7,5-3.4,10.8,0C774.7,602.4,782.9,606.2,785.5,604.4z"/></g><g><path d="M873.3,593.8c-6.9-3-4-5.7-12.2-7.1c-8.3-1.5-15,0-17.3-1.5c-2.1-1.5-12.9-5.3-11.4,0c1.5,5.3,11.1,6.7,13.6,8.2c2.5,1.5-3.6,4.9,1,7.5c4.7,2.6,7.9,7.5,14,6c6.1-1.5,8.3,1.9,13.2,2.6c5,0.7,10.1-0.8,8-3.1c-2.1-2.2-3.6-5.3-3.2-7.9C879.4,596,880.1,596.8,873.3,593.8z"/></g><g><path d="M869.8,627.3c-2.5-7.5-8.6-21.4-10-14.7c-1.5,6.7-11.1,11.6-14.8,11.3c-3.3-0.4-1.4-3.8-1.4-6.8c0-3-1.9-6-10.1-3.7c-8.3,2.2-10,10.1-12.2,9.4c-2.1-0.7-7.9-2.3-11.4,1.9c-3.6,4.1-6.9,12-11.1,13.5c-4.3,1.5-18.7,3.4-18.7,9.4c0,6,3.6,15,3.2,19.9c-0.4,4.9-6.9,16.1,1.8,19.6c5,1.9,8.6,2.2,14.4-0.8c5.7-3,30.5-10.9,33.7-8.3c3.2,2.6,8.4,8.8,10.8,10.1c4.5,2.7,5.8,9,11.9,10.5c6,1.5,10.7,2.2,13.2,2.2c2.5,0,11.5-3,13.6-8.3c2.1-5.3,6.1-17.7,7.9-23.7c1.9-6,3.5-12.8-1.8-18.1C883.4,645.7,872.3,634.8,869.8,627.3z"/></g></g></g><g></g><g></g><g></g><g></g><g></g><g></g><g></g><g></g><g></g><g></g><g></g><g></g><g></g><g></g><g></g></g>
</svg>